<svg width="430" height="554" viewBox="0 0 430 554" fill="none" xmlns="http://www.w3.org/2000/svg">
<path d="M55.9628 512.447C3.50001 458.982 0 452.895 0 452.895V0H430V444.888C430 444.888 414.338 432.833 402.59 428.874C391.71 425.208 384.91 423.959 373.466 424.87C355.991 426.262 345.865 431.721 332.351 442.886C305 465.482 308.5 469.443 271.819 494.431C238.139 517.376 294.051 417.562 253.5 466.982C237.5 486.481 221.5 545.479 155.5 552.479C139.846 554.139 130 556.221 109 547.979C88 539.737 76.6012 533.479 55.9628 512.447Z" fill="#226CE9"/>
</svg>
