<svg width="430" height="184" viewBox="0 0 430 184" fill="none" xmlns="http://www.w3.org/2000/svg">
<path d="M55.9628 142.447C3.50001 88.9822 0 82.8949 0 82.8949V-370H430V74.8879C430 74.8879 414.338 62.8332 402.59 58.874C391.71 55.2077 384.91 53.9593 373.466 54.8705C355.991 56.2619 345.865 61.721 332.351 72.8862C305 95.4819 308.5 99.4426 271.819 124.431C238.139 147.376 294.051 47.5617 253.5 96.9819C237.5 116.481 221.5 175.479 155.5 182.479C139.846 184.139 130 186.221 109 177.979C88 169.737 76.6012 163.479 55.9628 142.447Z" fill="#226CE9"/>
</svg>
