<svg width="20" height="20" viewBox="0 0 20 20" fill="none" xmlns="http://www.w3.org/2000/svg">
<path d="M16.25 18.3333C16.9403 18.3333 17.5 17.7736 17.5 17.0833C17.5 16.3929 16.9403 15.8333 16.25 15.8333C15.5597 15.8333 15 16.3929 15 17.0833C15 17.7736 15.5597 18.3333 16.25 18.3333Z" fill="#292929" fill-opacity="0.65" stroke="#292929" stroke-opacity="0.65" stroke-linecap="round" stroke-linejoin="round"/>
<path d="M7.91669 18.3333C8.60702 18.3333 9.16669 17.7736 9.16669 17.0833C9.16669 16.3929 8.60702 15.8333 7.91669 15.8333C7.22633 15.8333 6.66669 16.3929 6.66669 17.0833C6.66669 17.7736 7.22633 18.3333 7.91669 18.3333Z" fill="#292929" fill-opacity="0.65" stroke="#292929" stroke-opacity="0.65" stroke-linecap="round" stroke-linejoin="round"/>
<path d="M13.75 3.33325H18.3334L16.6667 12.4999H12.9167M13.75 3.33325L12.9167 12.4999M13.75 3.33325H8.95835M12.9167 12.4999H9.58335M8.95835 3.33325H4.16669L5.83335 12.4999H9.58335M8.95835 3.33325L9.58335 12.4999" stroke="#292929" stroke-opacity="0.65" stroke-linecap="round" stroke-linejoin="round"/>
<path d="M4.16669 3.33341C4.0278 2.77786 3.33335 1.66675 1.66669 1.66675" stroke="#292929" stroke-opacity="0.65" stroke-linecap="round" stroke-linejoin="round"/>
<path d="M16.6666 12.5H5.83331H4.35895C2.87203 12.5 2.08331 13.151 2.08331 14.1667C2.08331 15.1823 2.87203 15.8333 4.35895 15.8333H16.25" stroke="#292929" stroke-opacity="0.65" stroke-linecap="round" stroke-linejoin="round"/>
</svg>
