<svg width="18" height="18" viewBox="0 0 18 18" fill="none" xmlns="http://www.w3.org/2000/svg">
<path d="M8.70999 6.74165L8.21062 6.24228L9.73051 4.71803H6.16958V3.9922H9.73051L8.20626 2.46795L8.70999 1.96857L11.0965 4.35511L8.70999 6.74165ZM5.30438 15.3261C4.99808 15.3261 4.73993 15.2213 4.52992 15.0118C4.3204 14.8018 4.21563 14.5436 4.21563 14.2373C4.21563 13.9315 4.3204 13.6736 4.52992 13.4636C4.73993 13.2536 4.99808 13.1486 5.30438 13.1486C5.6102 13.1486 5.86811 13.2536 6.07812 13.4636C6.28813 13.6736 6.39313 13.9315 6.39313 14.2373C6.39313 14.5432 6.28813 14.8013 6.07812 15.0118C5.86811 15.2213 5.6102 15.3261 5.30438 15.3261ZM12.1156 15.3261C11.8098 15.3261 11.5519 15.2213 11.3419 15.0118C11.1319 14.8018 11.0269 14.5436 11.0269 14.2373C11.0269 13.9315 11.1319 13.6736 11.3419 13.4636C11.5519 13.2536 11.8098 13.1486 12.1156 13.1486C12.4214 13.1486 12.6796 13.2536 12.8901 13.4636C13.1006 13.6736 13.2053 13.9315 13.2044 14.2373C13.2034 14.5432 13.0986 14.8013 12.8901 15.0118C12.6815 15.2223 12.4234 15.3271 12.1156 15.3261ZM1.45166 2.54053V1.8147H3.2285L6.20151 8.06775H11.0174C11.1011 8.06775 11.1756 8.04694 11.241 8.00533C11.3058 7.96323 11.3615 7.90516 11.4079 7.83113L13.9454 3.26636H14.7729L12.0263 8.22744C11.9213 8.40405 11.7849 8.54269 11.617 8.64334C11.449 8.74399 11.2644 8.79407 11.0631 8.79358H5.87924L4.99736 10.4129C4.92284 10.5242 4.92042 10.6452 4.9901 10.7758C5.05978 10.9065 5.16454 10.9718 5.30438 10.9718H13.2044V11.6976H5.30438C4.88098 11.6976 4.56428 11.5198 4.35427 11.1642C4.14426 10.8085 4.1399 10.4492 4.3412 10.0863L5.43286 8.14106L2.76397 2.54053H1.45166Z" fill="#226CE9"/>
</svg>
