<svg width="8" height="7" viewBox="0 0 8 7" fill="none" xmlns="http://www.w3.org/2000/svg">
<path d="M3.99998 6.33337C3.82979 6.33252 3.66192 6.29378 3.50856 6.21998C3.3552 6.14618 3.22018 6.03917 3.11332 5.90671L0.306652 2.50671C0.142648 2.30202 0.0394424 2.05538 0.0087965 1.79489C-0.0218494 1.5344 0.0212967 1.27054 0.133318 1.03337C0.224171 0.827258 0.372434 0.65165 0.560398 0.527522C0.748362 0.403395 0.968083 0.335996 1.19332 0.333374H6.80665C7.03189 0.335996 7.25161 0.403395 7.43957 0.527522C7.62754 0.65165 7.7758 0.827258 7.86665 1.03337C7.97867 1.27054 8.02182 1.5344 7.99117 1.79489C7.96053 2.05538 7.85732 2.30202 7.69332 2.50671L4.88665 5.90671C4.77979 6.03917 4.64477 6.14618 4.49141 6.21998C4.33805 6.29378 4.17018 6.33252 3.99998 6.33337Z" fill="white"/>
</svg>
