<svg width="29" height="28" viewBox="0 0 29 28" fill="none" xmlns="http://www.w3.org/2000/svg">
<circle cx="14.5" cy="14" r="14" fill="white"/>
<g clip-path="url(#clip0_187_289)">
<path d="M13.4902 20.3226C13.4902 20.1429 13.5616 19.9706 13.6886 19.8436C13.8157 19.7165 13.988 19.6452 14.1677 19.6452H19.587C19.6469 19.6452 19.7043 19.6214 19.7467 19.579C19.789 19.5367 19.8128 19.4792 19.8128 19.4194V8.58065C19.8128 8.52076 19.789 8.46332 19.7467 8.42098C19.7043 8.37863 19.6469 8.35484 19.587 8.35484H14.1677C13.988 8.35484 13.8157 8.28347 13.6886 8.15643C13.5616 8.02939 13.4902 7.85708 13.4902 7.67742C13.4902 7.49776 13.5616 7.32545 13.6886 7.19841C13.8157 7.07137 13.988 7 14.1677 7H19.587C20.4595 7 21.1677 7.70813 21.1677 8.58065V19.4194C21.1677 19.8386 21.0011 20.2406 20.7047 20.537C20.4083 20.8335 20.0062 21 19.587 21H14.1677C13.988 21 13.8157 20.9286 13.6886 20.8016C13.5616 20.6745 13.4902 20.5022 13.4902 20.3226Z" fill="#226CE9"/>
<path d="M6.49023 15.0069C6.49023 15.2465 6.5854 15.4762 6.75478 15.6456C6.92417 15.815 7.15391 15.9101 7.39346 15.9101H11.7795C11.8003 16.2317 11.8265 16.5514 11.8572 16.873L11.8843 17.1485C11.8944 17.2523 11.9294 17.3521 11.9863 17.4396C12.0432 17.527 12.1204 17.5994 12.2112 17.6506C12.3021 17.7019 12.404 17.7304 12.5082 17.7339C12.6125 17.7373 12.716 17.7156 12.8101 17.6705C14.4609 16.8791 15.9553 15.7962 17.2215 14.474L17.2486 14.446C17.3648 14.3248 17.4297 14.1633 17.4297 13.9953C17.4297 13.8273 17.3648 13.6658 17.2486 13.5446L17.2215 13.5166C15.9553 12.1943 14.4609 11.1115 12.8101 10.3201C12.716 10.275 12.6125 10.2532 12.5082 10.2567C12.404 10.2602 12.3021 10.2887 12.2112 10.34C12.1204 10.3912 12.0432 10.4636 11.9863 10.551C11.9294 10.6384 11.8944 10.7383 11.8843 10.8421L11.8572 11.1176C11.8265 11.4383 11.8003 11.7589 11.7795 12.0805H7.39346C7.15391 12.0805 6.92417 12.1756 6.75478 12.345C6.5854 12.5144 6.49023 12.7441 6.49023 12.9837V15.0069Z" fill="#226CE9"/>
</g>
<defs>
<clipPath id="clip0_187_289">
<rect width="16" height="16" fill="white" transform="translate(5.5 6)"/>
</clipPath>
</defs>
</svg>
