<svg width="16" height="16" viewBox="0 0 16 16" fill="none" xmlns="http://www.w3.org/2000/svg">
<path d="M13.5625 11.4374H12.4641C12.3891 11.4374 12.3188 11.4702 12.2719 11.528C12.1625 11.6608 12.0453 11.789 11.9219 11.9108C11.417 12.4162 10.819 12.819 10.1609 13.0968C9.47916 13.3847 8.74637 13.5325 8.00626 13.5312C7.25782 13.5312 6.53282 13.3843 5.85157 13.0968C5.19349 12.819 4.59548 12.4162 4.09064 11.9108C3.58489 11.4072 3.18161 10.8102 2.90314 10.153C2.61407 9.47178 2.46876 8.74834 2.46876 7.9999C2.46876 7.25146 2.61564 6.52803 2.90314 5.84678C3.18126 5.18896 3.58126 4.59678 4.09064 4.08896C4.60001 3.58115 5.1922 3.18115 5.85157 2.90303C6.53282 2.61553 7.25782 2.46865 8.00626 2.46865C8.7547 2.46865 9.4797 2.61396 10.1609 2.90303C10.8203 3.18115 11.4125 3.58115 11.9219 4.08896C12.0453 4.2124 12.1609 4.34053 12.2719 4.47178C12.3188 4.52959 12.3906 4.5624 12.4641 4.5624H13.5625C13.6609 4.5624 13.7219 4.45303 13.6672 4.37021C12.4688 2.50771 10.3719 1.2749 7.98907 1.28115C4.24532 1.29053 1.24376 4.32959 1.28126 8.06865C1.31876 11.7483 4.31564 14.7187 8.00626 14.7187C10.3828 14.7187 12.4703 13.4874 13.6672 11.6296C13.7203 11.5468 13.6609 11.4374 13.5625 11.4374ZM14.9516 7.90147L12.7344 6.15146C12.6516 6.08584 12.5313 6.14522 12.5313 6.2499V7.4374H7.62501C7.55626 7.4374 7.50001 7.49365 7.50001 7.5624V8.4374C7.50001 8.50615 7.55626 8.5624 7.62501 8.5624H12.5313V9.7499C12.5313 9.85459 12.6531 9.91397 12.7344 9.84834L14.9516 8.09834C14.9665 8.08665 14.9786 8.07171 14.9869 8.05465C14.9952 8.0376 14.9995 8.01887 14.9995 7.9999C14.9995 7.98093 14.9952 7.96221 14.9869 7.94515C14.9786 7.9281 14.9665 7.91316 14.9516 7.90147Z" fill="#226CE9"/>
</svg>
