<svg width="24" height="24" viewBox="0 0 24 24" fill="none" xmlns="http://www.w3.org/2000/svg">
<path d="M3.75 20.25L9.375 14.625M21 9.75C21 10.6364 20.8254 11.5142 20.4862 12.3331C20.147 13.1521 19.6498 13.8962 19.023 14.523C18.3962 15.1498 17.6521 15.647 16.8331 15.9862C16.0142 16.3254 15.1364 16.5 14.25 16.5C13.3636 16.5 12.4858 16.3254 11.6669 15.9862C10.8479 15.647 10.1038 15.1498 9.47703 14.523C8.85023 13.8962 8.35303 13.1521 8.01381 12.3331C7.67459 11.5142 7.5 10.6364 7.5 9.75C7.5 7.95979 8.21116 6.2429 9.47703 4.97703C10.7429 3.71116 12.4598 3 14.25 3C16.0402 3 17.7571 3.71116 19.023 4.97703C20.2888 6.2429 21 7.95979 21 9.75Z" stroke="#292929" stroke-opacity="0.55" stroke-width="2" stroke-linecap="round" stroke-linejoin="round"/>
</svg>
