<svg width="20" height="20" viewBox="0 0 20 20" fill="none" xmlns="http://www.w3.org/2000/svg">
<path d="M10 12.5C11.3807 12.5 12.5 11.3807 12.5 10C12.5 8.61925 11.3807 7.5 10 7.5C8.61925 7.5 7.5 8.61925 7.5 10C7.5 11.3807 8.61925 12.5 10 12.5Z" stroke="#292929" stroke-opacity="0.65" stroke-linecap="round" stroke-linejoin="round"/>
<path d="M16.352 8.66291L15.4372 6.45408L16.6667 5.00008L15 3.33341L13.5539 4.56921L11.2982 3.64153L10.7794 1.66675H9.15082L8.62424 3.66769L6.42033 4.59671L4.99999 3.33341L3.33332 5.00008L4.54446 6.49079L3.64374 8.70533L1.66666 9.16675V10.8334L3.66758 11.3797L4.59645 13.5832L3.33332 15.0001L4.99999 16.6667L6.49262 15.4503L8.66416 16.3437L9.16666 18.3334H10.8333L11.3371 16.3444L13.5459 15.4297C13.9141 15.6928 15 16.6667 15 16.6667L16.6667 15.0001L15.4299 13.5412L16.3449 11.3317L18.3332 10.8144L18.3333 9.16675L16.352 8.66291Z" stroke="#292929" stroke-opacity="0.65" stroke-linecap="round" stroke-linejoin="round"/>
</svg>
